<svg width="16" height="18" viewBox="0 0 16 18" fill="none" xmlns="http://www.w3.org/2000/svg">
    <path d="M7.03721 15.4304V9.56059L1.97758 6.58155V12.4513L7.03721 15.4304ZM8.96279 15.4304L14.0224 12.4513V6.58155L8.96279 9.56059V15.4304ZM8 7.87356L12.9944 4.93867L8 2.00907L3.00556 4.93867L8 7.87356ZM0.9888 14.2079C0.678881 14.0249 0.436605 13.7816 0.261972 13.4779C0.087324 13.1743 0 12.8395 0 12.4734V5.52662C0 5.16057 0.087324 4.82572 0.261972 4.52208C0.436605 4.21843 0.678881 3.97509 0.9888 3.79208L7.01122 0.274513C7.32113 0.0915038 7.65072 0 8 0C8.34928 0 8.67887 0.0915038 8.98878 0.274513L15.0112 3.79208C15.3211 3.97509 15.5634 4.21843 15.738 4.52208C15.9127 4.82572 16 5.16057 16 5.52662V12.4734C16 12.8395 15.9127 13.1743 15.738 13.4779C15.5634 13.7816 15.3211 14.0249 15.0112 14.2079L8.98878 17.7255C8.67887 17.9085 8.34928 18 8 18C7.65072 18 7.32113 17.9085 7.01122 17.7255L0.9888 14.2079Z" fill="white"/>
</svg>
