<svg width="100" height="24" viewBox="0 0 100 24" fill="none" xmlns="http://www.w3.org/2000/svg">
    <path d="M28.306 7.966V5.842H38.314V7.966H34.462V19H32.158V7.966H28.306ZM42.2175 19.234C39.5715 19.234 37.7175 17.308 37.7175 14.554C37.7175 11.764 39.5355 9.838 42.1455 9.838C44.8095 9.838 46.5015 11.62 46.5015 14.392V15.058L39.8055 15.076C39.9675 16.642 40.7955 17.434 42.2535 17.434C43.4595 17.434 44.2515 16.966 44.5035 16.12H46.5375C46.1595 18.064 44.5395 19.234 42.2175 19.234ZM42.1635 11.638C40.8675 11.638 40.0755 12.34 39.8595 13.672H44.3235C44.3235 12.448 43.4775 11.638 42.1635 11.638ZM50.455 19H48.259V5.608H50.473V11.26C51.031 10.396 52.075 9.838 53.353 9.838C55.549 9.838 56.701 11.224 56.701 13.528V19H54.505V14.05C54.505 12.556 53.767 11.836 52.651 11.836C51.265 11.836 50.455 12.808 50.455 14.14V19ZM61.4506 19H59.1826V5.842H61.4686L67.6426 15.166V5.842H69.9106V19H67.6426L61.4506 9.676V19ZM73.5972 8.326C72.8412 8.326 72.2472 7.732 72.2472 6.994C72.2472 6.256 72.8412 5.68 73.5972 5.68C74.3172 5.68 74.9112 6.256 74.9112 6.994C74.9112 7.732 74.3172 8.326 73.5972 8.326ZM72.4992 19V10.108H74.6952V19H72.4992ZM79.9881 19H77.7921V11.944H76.0821V10.108H77.7921V7.336H79.9881V10.108H81.7161V11.944H79.9881V19ZM88.6613 10.072V12.106H87.8513C86.2673 12.106 85.2773 12.952 85.2773 14.68V19H83.0813V10.126H85.1513L85.2773 11.422C85.6553 10.54 86.5013 9.946 87.6893 9.946C87.9953 9.946 88.3013 9.982 88.6613 10.072ZM89.3268 14.536C89.3268 11.764 91.3248 9.856 94.0788 9.856C96.8328 9.856 98.8308 11.764 98.8308 14.536C98.8308 17.308 96.8328 19.216 94.0788 19.216C91.3248 19.216 89.3268 17.308 89.3268 14.536ZM91.5228 14.536C91.5228 16.156 92.5668 17.254 94.0788 17.254C95.5908 17.254 96.6348 16.156 96.6348 14.536C96.6348 12.916 95.5908 11.818 94.0788 11.818C92.5668 11.818 91.5228 12.916 91.5228 14.536Z" fill="white"/>
    <path d="M8.09568 19.4728V12.8261L2.27502 9.45272V16.0994L8.09568 19.4728ZM10.3109 19.4728L16.1315 16.0994V9.45272L10.3109 12.8261V19.4728ZM9.20327 10.9158L14.9489 7.59238L9.20327 4.275L3.45762 7.59238L9.20327 10.9158ZM1.13752 18.0886C0.780991 17.8813 0.502275 17.6058 0.301375 17.2619C0.100458 16.9181 0 16.5389 0 16.1244V8.25815C0 7.84365 0.100458 7.46448 0.301375 7.12065C0.502275 6.7768 0.780991 6.50126 1.13752 6.29402L8.06577 2.31085C8.42229 2.10362 8.80146 2 9.20327 2C9.60509 2 9.98426 2.10362 10.3408 2.31085L17.269 6.29402C17.6256 6.50126 17.9043 6.7768 18.1052 7.12065C18.3061 7.46448 18.4065 7.84365 18.4065 8.25815V16.1244C18.4065 16.5389 18.3061 16.9181 18.1052 17.2619C17.9043 17.6058 17.6256 17.8813 17.269 18.0886L10.3408 22.0718C9.98426 22.279 9.60509 22.3826 9.20327 22.3826C8.80146 22.3826 8.42229 22.279 8.06577 22.0717L1.13752 18.0886Z" fill="white"/>
</svg>